<svg width="209" height="46" viewBox="0 0 209 46" fill="none" xmlns="http://www.w3.org/2000/svg">
  <g clip-path="url(#clip0_540_4275)">
    <path d="M87.6738 36.2137L90.7551 17.4732H102.395L101.996 19.9066H93.1571L92.2137 25.6158H100.445L100.045 28.0404H91.8146L90.8712 33.7774H99.8176L99.4184 36.2108H87.6709L87.6738 36.2137ZM106.661 27.869L105.301 36.2137H102.59L104.91 22.1584H107.513L107.133 24.4452H107.305C107.747 23.6952 108.347 23.0974 109.109 22.6521C109.877 22.2008 110.783 21.9752 111.829 21.9752C112.773 21.9752 113.564 22.1759 114.205 22.5788C114.851 22.9758 115.308 23.5677 115.574 24.3544C115.845 25.1411 115.887 26.1139 115.7 27.2727L114.214 36.2122H111.504L112.928 27.6023C113.091 26.5842 112.958 25.7872 112.529 25.2144C112.106 24.6342 111.432 24.3456 110.507 24.3456C109.879 24.3456 109.295 24.4833 108.758 24.7573C108.227 25.0312 107.776 25.4341 107.407 25.9645C107.044 26.4889 106.797 27.1233 106.664 27.8675L106.661 27.869ZM126.404 22.1598L126.05 24.3559H118.445L118.797 22.1598H126.404ZM121.382 18.7932H124.092L121.898 32.0882C121.813 32.6186 121.828 33.0185 121.943 33.2866C122.057 33.5488 122.233 33.729 122.468 33.8272C122.71 33.918 122.979 33.9649 123.275 33.9649C123.493 33.9649 123.683 33.9503 123.845 33.9195C124.008 33.8887 124.138 33.8653 124.234 33.8462L124.379 36.1068C124.198 36.1683 123.953 36.2284 123.645 36.2899C123.342 36.3573 122.973 36.3939 122.539 36.3998C121.826 36.4115 121.182 36.284 120.609 36.0159C120.034 35.742 119.606 35.3274 119.321 34.7721C119.037 34.211 118.967 33.5064 119.112 32.6581L121.379 18.7947L121.382 18.7932ZM132.642 36.4994C131.276 36.4994 130.146 36.2035 129.252 35.6116C128.363 35.0139 127.741 34.1744 127.384 33.0947C127.027 32.0091 126.97 30.7375 127.211 29.2783C127.446 27.8382 127.921 26.5695 128.635 25.4722C129.348 24.3749 130.236 23.5164 131.3 22.9011C132.369 22.2843 133.551 21.9767 134.844 21.9767C135.629 21.9767 136.369 22.1085 137.065 22.3708C137.766 22.633 138.361 23.0447 138.85 23.6058C139.339 24.1669 139.679 24.8965 139.866 25.7931C140.059 26.6838 140.053 27.7664 139.847 29.041L139.693 30.0108H128.615L128.932 27.9613H137.345C137.472 27.242 137.439 26.6047 137.245 26.0494C137.052 25.4883 136.719 25.0459 136.247 24.7221C135.782 24.3984 135.195 24.2372 134.488 24.2372C133.782 24.2372 133.086 24.4291 132.458 24.8144C131.829 25.1983 131.304 25.689 130.88 26.2882C130.464 26.8801 130.2 27.4895 130.092 28.118L129.774 29.9933C129.617 31.0188 129.644 31.8421 129.856 32.4633C130.073 33.0859 130.453 33.5371 130.998 33.8169C131.542 34.0982 132.221 34.2374 133.037 34.2374C133.564 34.2374 134.05 34.1642 134.497 34.0176C134.95 33.8653 135.352 33.6426 135.703 33.3496C136.053 33.0507 136.348 32.6786 136.583 32.2333L139.066 32.6991C138.734 33.4624 138.256 34.129 137.634 34.7033C137.011 35.2702 136.276 35.7127 135.43 36.0306C134.59 36.3412 133.66 36.4979 132.638 36.4979L132.642 36.4994ZM141.455 36.2152L143.776 22.1598H146.396L146.024 24.3925H146.169C146.544 23.6366 147.091 23.0418 147.809 22.6081C148.528 22.1686 149.295 21.9489 150.113 21.9489C150.288 21.9489 150.487 21.9547 150.711 21.9664C150.934 21.9723 151.115 21.9884 151.255 22.0119L150.819 24.6284C150.716 24.5976 150.529 24.5639 150.258 24.5273C149.986 24.4848 149.705 24.4628 149.414 24.4628C148.78 24.4628 148.191 24.6005 147.647 24.8745C147.102 25.1426 146.647 25.5176 146.278 25.9996C145.909 26.4758 145.671 27.0178 145.561 27.6287L144.165 36.2122H141.454L141.455 36.2152ZM150.176 41.4863L153.368 22.1613H156.015L155.644 24.4394H155.872C156.076 24.1464 156.358 23.808 156.715 23.4241C157.078 23.0403 157.547 22.7048 158.12 22.4177C158.693 22.1247 159.413 21.9782 160.278 21.9782C161.403 21.9782 162.358 22.2653 163.143 22.8381C163.928 23.4109 164.484 24.2387 164.811 25.3184C165.137 26.3981 165.177 27.6976 164.928 29.2168C164.68 30.736 164.216 32.0384 163.532 33.124C162.854 34.2037 162.03 35.0358 161.057 35.6218C160.084 36.202 159.036 36.4906 157.912 36.4906C157.066 36.4906 156.399 36.347 155.909 36.0599C155.426 35.7727 155.063 35.4372 154.821 35.0534C154.586 34.6696 154.406 34.3268 154.287 34.0279H154.124L152.891 41.4848H150.179L150.176 41.4863ZM154.863 29.189C154.706 30.1778 154.706 31.0437 154.863 31.7879C155.027 32.5321 155.343 33.1152 155.815 33.5357C156.293 33.9503 156.918 34.1583 157.692 34.1583C158.465 34.1583 159.211 33.9415 159.821 33.5093C160.438 33.0698 160.946 32.475 161.343 31.7249C161.743 30.9748 162.024 30.1295 162.187 29.1904C162.332 28.2631 162.329 27.4309 162.178 26.6926C162.026 25.9542 161.712 25.3726 161.235 24.9448C160.763 24.5185 160.12 24.3046 159.304 24.3046C158.489 24.3046 157.821 24.5082 157.21 24.917C156.599 25.3257 156.095 25.8956 155.696 26.6281C155.297 27.3606 155.018 28.2147 154.861 29.1904L154.863 29.189ZM166.547 36.2166L168.867 22.1613H171.487L171.116 24.394H171.261C171.635 23.638 172.182 23.0432 172.902 22.6096C173.622 22.1701 174.388 21.9503 175.204 21.9503C175.38 21.9503 175.579 21.9562 175.804 21.9679C176.027 21.9738 176.209 21.9899 176.346 22.0133L175.911 24.6298C175.808 24.5991 175.621 24.5654 175.349 24.5287C175.078 24.4863 174.796 24.4643 174.506 24.4643C173.872 24.4643 173.283 24.602 172.738 24.876C172.194 25.1441 171.738 25.5191 171.37 26.0011C171.001 26.4772 170.763 27.0193 170.653 27.6302L169.256 36.2137H166.545L166.547 36.2166ZM176.139 36.2166L178.46 22.1613H181.171L178.85 36.2166H176.14H176.139ZM180.373 19.9652C179.908 19.9652 179.512 19.807 179.185 19.4891C178.866 19.1653 178.718 18.7815 178.741 18.3361C178.759 17.8849 178.943 17.5011 179.294 17.1832C179.644 16.8594 180.056 16.6982 180.528 16.6982C181 16.6982 181.396 16.8594 181.715 17.1832C182.036 17.5011 182.184 17.8849 182.159 18.3361C182.142 18.7815 181.957 19.1653 181.606 19.4891C181.255 19.8055 180.844 19.9652 180.373 19.9652ZM194.434 25.5923L191.904 26.0319C191.85 25.7081 191.738 25.4034 191.569 25.1162C191.406 24.8291 191.155 24.5976 190.817 24.4203C190.477 24.2372 190.027 24.1464 189.466 24.1464C188.686 24.1464 188.003 24.3266 187.416 24.6855C186.837 25.0459 186.505 25.503 186.419 26.0582C186.341 26.5094 186.447 26.8757 186.737 27.1555C187.027 27.4295 187.537 27.6595 188.268 27.8411L190.407 28.3539C191.64 28.6528 192.522 29.1201 193.055 29.7545C193.593 30.3829 193.78 31.2004 193.618 32.2069C193.479 33.0419 193.116 33.7832 192.529 34.4308C191.949 35.0769 191.206 35.5837 190.299 35.95C189.391 36.3163 188.383 36.4994 187.271 36.4994C185.688 36.4994 184.455 36.161 183.571 35.4841C182.689 34.8073 182.236 33.8492 182.211 32.6112L184.895 32.2084C184.943 32.8969 185.188 33.4199 185.629 33.773C186.078 34.1202 186.696 34.2945 187.487 34.2945C188.394 34.3004 189.153 34.1085 189.763 33.7173C190.373 33.3276 190.721 32.8544 190.805 32.2992C190.878 31.8655 190.78 31.5066 190.515 31.2195C190.255 30.9323 189.795 30.7126 189.136 30.5602L186.888 30.0387C185.631 29.7398 184.743 29.2578 184.223 28.5927C183.704 27.9276 183.528 27.0925 183.698 26.0861C183.83 25.2627 184.175 24.5463 184.731 23.9354C185.293 23.3186 186.004 22.8411 186.862 22.4982C187.719 22.151 188.669 21.9767 189.708 21.9767C191.225 21.9767 192.364 22.3063 193.126 22.9656C193.888 23.619 194.323 24.4936 194.431 25.5923H194.434ZM201.637 36.4994C200.271 36.4994 199.14 36.2035 198.246 35.6116C197.358 35.0139 196.736 34.1744 196.378 33.0947C196.023 32.0091 195.965 30.7375 196.207 29.2783C196.442 27.8382 196.917 26.5695 197.63 25.4722C198.344 24.3749 199.232 23.5164 200.294 22.9011C201.364 22.2843 202.545 21.9767 203.839 21.9767C204.625 21.9767 205.364 22.1085 206.059 22.3708C206.76 22.633 207.355 23.0447 207.844 23.6058C208.335 24.1669 208.673 24.8965 208.86 25.7931C209.053 26.6838 209.048 27.7664 208.843 29.041L208.689 30.0108H197.612L197.929 27.9613H206.341C206.467 27.242 206.435 26.6047 206.241 26.0494C206.048 25.4883 205.715 25.0459 205.244 24.7221C204.778 24.3984 204.191 24.2372 203.484 24.2372C202.778 24.2372 202.082 24.4291 201.454 24.8144C200.826 25.1983 200.3 25.689 199.876 26.2882C199.46 26.8801 199.196 27.4895 199.087 28.118L198.769 29.9933C198.612 31.0188 198.64 31.8421 198.85 32.4633C199.068 33.0859 199.448 33.5371 199.992 33.8169C200.537 34.0982 201.216 34.2374 202.033 34.2374C202.558 34.2374 203.045 34.1642 203.492 34.0176C203.946 33.8653 204.347 33.6426 204.698 33.3496C205.048 33.0507 205.342 32.6786 205.577 32.2333L208.061 32.6991C207.728 33.4624 207.251 34.129 206.628 34.7033C206.006 35.2702 205.271 35.7127 204.426 36.0306C203.586 36.3412 202.656 36.4979 201.634 36.4979L201.637 36.4994Z" fill="black"/>
    <mask id="mask0_540_4275" style="mask-type:luminance" maskUnits="userSpaceOnUse" x="0" y="0" width="87" height="46">
      <path d="M86.4157 0H0V46H86.4157V0Z" fill="white"/>
    </mask>
    <g mask="url(#mask0_540_4275)">
      <path d="M20.6375 16.1374C20.2804 15.7169 19.8363 15.3858 19.3051 15.1412C18.7739 14.8965 18.1571 14.7734 17.4531 14.7734C16.7492 14.7734 16.0685 14.9024 15.4459 15.1587C14.8232 15.4151 14.2572 15.7814 13.7506 16.2516C13.2441 16.7248 12.8043 17.2903 12.4357 17.9496C12.0656 18.6088 11.7724 19.3399 11.5547 20.1471H21.6752C21.6854 20.0885 21.6941 19.9801 21.7013 19.8233C21.7086 19.6651 21.7101 19.5098 21.7101 19.3589C21.7101 18.7407 21.6215 18.1547 21.4415 17.5995C21.2616 17.0457 20.996 16.5593 20.6375 16.1388V16.1374Z" fill="black"/>
      <path d="M39.7984 16.2341C39.3935 15.7843 38.9044 15.4385 38.3282 15.1939C37.752 14.9492 37.1003 14.8262 36.3732 14.8262C35.4152 14.8262 34.5284 15.043 33.7099 15.4752C32.8913 15.9074 32.1801 16.5065 31.5807 17.2757C30.9812 18.0463 30.5081 18.9648 30.1627 20.0314C29.8158 21.0979 29.6431 22.2684 29.6431 23.5401C29.6431 24.3327 29.7563 25.0622 29.9812 25.7288C30.2062 26.3939 30.5212 26.9624 30.9232 27.4356C31.3267 27.9088 31.8114 28.275 32.376 28.5372C32.9406 28.7995 33.5691 28.9313 34.2628 28.9313C35.2309 28.9313 36.1279 28.7013 36.9523 28.2398C37.7781 27.7798 38.4936 27.1484 39.1047 26.3514C39.7157 25.5515 40.1947 24.6125 40.5401 23.5342C40.887 22.456 41.0597 21.2913 41.0597 20.0431C41.0597 19.2388 40.9494 18.5165 40.7331 17.8719C40.514 17.2303 40.2019 16.6853 39.7999 16.2355L39.7984 16.2341Z" fill="black"/>
      <path d="M53.2921 0H7.50949L0 36.2708H38.2804L36.1715 45.9985H72.8409L80.9309 7.54336H51.7362L53.2921 0ZM24.8071 20.3974C24.7941 20.6494 24.7767 20.9058 24.7549 21.1665C24.7317 21.4288 24.707 21.6852 24.6852 21.9371C24.662 22.1891 24.633 22.4015 24.5981 22.5744H11.1554C11.1438 22.7385 11.1365 22.8967 11.1293 23.0476C11.122 23.1985 11.1205 23.3567 11.1205 23.5208C11.1205 24.4892 11.2599 25.3125 11.5371 25.9967C11.8143 26.6808 12.1743 27.2361 12.6184 27.6683C13.0625 28.1004 13.5603 28.411 14.1148 28.6029C14.6692 28.7963 15.228 28.8916 15.7926 28.8916C17.0277 28.8916 18.019 28.6762 18.7679 28.2426C19.5168 27.8104 20.0887 27.2288 20.4805 26.4948H23.6475C23.4501 27.217 23.1279 27.8939 22.6794 28.5253C22.2295 29.1538 21.662 29.6988 20.9755 30.1617C20.289 30.6217 19.4922 30.9836 18.5894 31.2458C17.6837 31.5081 16.6881 31.6399 15.6053 31.6399C14.5226 31.6399 13.5865 31.4671 12.6648 31.1228C11.7417 30.7785 10.9362 30.2701 10.2526 29.6006C9.5661 28.9296 9.02474 28.1048 8.6256 27.1247C8.22647 26.1461 8.02763 25.0195 8.02763 23.7464C8.02763 22.0089 8.26856 20.4252 8.74607 18.9968C9.22503 17.567 9.88976 16.3437 10.7446 15.3211C11.598 14.3 12.6227 13.5104 13.8158 12.9507C15.0088 12.3896 16.3151 12.1113 17.7331 12.1113C18.691 12.1113 19.5981 12.2798 20.4573 12.6196C21.3165 12.9595 22.0684 13.4503 22.7157 14.0978C23.3616 14.7468 23.8739 15.5409 24.2556 16.4858C24.6373 17.4293 24.8275 18.5163 24.8275 19.7411C24.8275 19.9271 24.8217 20.1469 24.81 20.3989L24.8057 20.3945L24.8071 20.3974ZM38.935 31.3059L39.472 28.7348H39.1948C38.5141 29.6329 37.6621 30.3405 36.6345 30.862C35.6084 31.3806 34.501 31.6399 33.3123 31.6399C32.379 31.6399 31.5024 31.4627 30.6824 31.1052C29.8638 30.7507 29.1453 30.2394 28.5271 29.5743C27.9102 28.9077 27.4225 28.1048 27.0655 27.1599C26.7085 26.2164 26.5285 25.1602 26.5285 23.9925C26.5285 22.8249 26.6417 21.7774 26.8667 20.7461C27.0916 19.7147 27.4124 18.7566 27.826 17.8761C28.2426 16.9956 28.7404 16.1987 29.3224 15.4881C29.9044 14.7761 30.5503 14.1696 31.2615 13.6686C31.9712 13.1676 32.739 12.7808 33.5619 12.5142C34.3878 12.2446 35.2484 12.1113 36.1483 12.1113C36.8174 12.1113 37.4545 12.205 38.0612 12.3911C38.6679 12.5772 39.2136 12.8379 39.7056 13.1705C40.1948 13.503 40.6171 13.9045 40.9684 14.3777C41.3196 14.8509 41.5765 15.3651 41.7376 15.9262H42.0148L44.3153 4.95615H47.3429L41.8073 31.3074H38.935L38.9379 31.3044L38.935 31.3059ZM56.1209 12.501L60.0149 21.7232H60.3763L67.7421 12.501H74.4954L62.43 26.568L68.9105 41.0409H62.2094L57.8277 31.3132H57.2791L49.1687 41.0409H42.5068L55.147 25.8956L49.2935 12.501H56.1238H56.1223H56.1209Z" fill="black"/>
      <path d="M84.4244 7.4834C83.3156 7.4834 82.4346 8.40782 82.4346 9.50805V9.51977C82.4346 10.62 83.304 11.5327 84.4244 11.5327C85.5449 11.5327 86.4157 10.6083 86.4157 9.50805V9.49779C86.4157 8.4005 85.5464 7.48486 84.4244 7.48486V7.4834ZM86.185 9.50805C86.185 10.4911 85.4201 11.3129 84.4244 11.3129C83.4288 11.3129 82.6639 10.5028 82.6639 9.52123V9.51098C82.6639 8.52795 83.4302 7.70755 84.4244 7.70755C85.4186 7.70755 86.185 8.5177 86.185 9.49926V9.51098V9.50805Z" fill="black"/>
      <path d="M85.3418 9.09041C85.3418 8.66262 85.0108 8.44141 84.5638 8.44141H83.6509V10.4866H84.0399V9.78189H84.4637L84.9441 10.4866H85.4114L84.8744 9.71304C85.1487 9.63246 85.3418 9.42443 85.3418 9.08894H85.3403L85.3418 9.09041ZM84.529 9.46106H84.037V8.79008H84.529C84.7917 8.79008 84.9412 8.90582 84.9412 9.12557C84.9412 9.32335 84.7917 9.46106 84.529 9.46106Z" fill="black"/>
    </g>
  </g>
  <defs>
    <clipPath id="clip0_540_4275">
      <rect width="209" height="46" fill="black"/>
    </clipPath>
  </defs>
</svg>
