<svg width="80" height="80" viewBox="0 0 80 80" fill="none" xmlns="http://www.w3.org/2000/svg">
<circle cx="40" cy="40" r="40" fill="#E1DDD2"/>
<path d="M53.9471 32.9079H27.5741L28.6213 28.0277H54.9943L53.9471 32.9079ZM28.9293 31.8166H53.0584L53.6391 29.119H29.5101L28.9293 31.8166Z" fill="#1F453D"/>
<path d="M52.3191 40.4945H25.9461L26.9933 35.6143H53.3663L52.3191 40.4945ZM27.3013 39.4032H51.4304L52.0112 36.7056H27.8821L27.3013 39.4032Z" fill="#1F453D"/>
<path d="M39.3394 48.081H24.327L25.3741 43.2008H40.3866L39.3394 48.081ZM25.6821 46.9897H38.4506L39.0314 44.2921H26.2629L25.6821 46.9897Z" fill="#1F453D"/>
<path d="M17.8063 53.031L24.3798 22.3706H62.1925L57.6078 43.777C57.9774 43.8032 58.347 43.8469 58.699 43.9167L63.5477 21.2793H23.491L16.4512 54.1223H48.4825C48.4121 53.7644 48.3681 53.3977 48.3417 53.031H17.8063Z" fill="#1F453D"/>
<path d="M57.0087 46.0908C53.5064 46.0908 50.6641 48.9107 50.6641 52.3853C50.6641 55.8599 53.5064 58.6798 57.0087 58.6798C60.511 58.6798 63.3534 55.8599 63.3534 52.3853C63.3534 48.9107 60.511 46.0908 57.0087 46.0908ZM59.9303 53.8694L58.7247 55.0655L57.0087 53.3631L55.2928 55.0655L54.0872 53.8694L55.8031 52.167L54.0872 50.4647L55.2928 49.2686L57.0087 50.971L58.7247 49.2686L59.9303 50.4647L58.2143 52.167L59.9303 53.8694Z" fill="#F0A066"/>
</svg>
