<svg width="153" height="133" viewBox="0 0 153 133" fill="none" xmlns="http://www.w3.org/2000/svg">
<path d="M108.851 47.6885L63.3203 96.4481L74.0956 101.036L83.2203 104.935L92.7888 109.003L101.929 112.903L111.49 116.978L120.63 120.87L130.191 124.938L139.323 128.845L145.918 131.651C146.777 132.022 147.733 132.12 148.652 131.933C149.571 131.745 150.408 131.281 151.046 130.605C151.684 129.929 152.092 129.074 152.212 128.16C152.333 127.245 152.16 126.317 151.718 125.504L145.949 115.021L140.047 104.316L133.811 93.0761L127.917 82.3715L121.751 71.1699L115.85 60.4652L109.691 49.2636L108.851 47.6885Z" fill="#F0CC00"/>
<path d="M147.724 132.775C146.995 132.777 146.273 132.629 145.606 132.339L63.0164 97.1664C62.903 97.1179 62.8029 97.0435 62.7246 96.9494C62.6463 96.8553 62.5919 96.7442 62.566 96.6254C62.5402 96.5065 62.5435 96.3833 62.5758 96.266C62.6081 96.1486 62.6684 96.0406 62.7517 95.9507L108.274 47.1911C108.358 47.1007 108.463 47.0314 108.579 46.989C108.696 46.9465 108.821 46.9322 108.945 46.9472C109.069 46.9621 109.187 47.006 109.289 47.075C109.392 47.1441 109.476 47.2363 109.535 47.344L152.356 125.121C152.75 125.831 152.969 126.622 152.997 127.431C153.024 128.239 152.859 129.043 152.514 129.777C152.169 130.512 151.654 131.157 151.01 131.661C150.367 132.166 149.612 132.516 148.806 132.683C148.45 132.75 148.087 132.781 147.724 132.775ZM64.6358 96.1648L146.268 130.94C146.981 131.243 147.773 131.321 148.533 131.162C149.294 131.003 149.985 130.615 150.51 130.052C151.035 129.489 151.368 128.779 151.463 128.021C151.559 127.264 151.411 126.496 151.04 125.824L108.687 48.9956L64.6358 96.1648Z" fill="#00262B"/>
<path d="M140.015 104.278L130.189 124.931L139.322 128.838L145.916 114.983L140.015 104.278Z" fill="white"/>
<path d="M139.323 129.602C139.215 129.601 139.109 129.577 139.011 129.533L129.918 125.634C129.822 125.594 129.735 125.535 129.663 125.462C129.591 125.388 129.535 125.301 129.497 125.206C129.456 125.111 129.436 125.01 129.436 124.907C129.436 124.805 129.456 124.704 129.497 124.609L139.323 103.965C139.385 103.837 139.481 103.728 139.602 103.651C139.723 103.574 139.864 103.532 140.008 103.529C140.152 103.524 140.294 103.559 140.419 103.629C140.544 103.699 140.647 103.802 140.716 103.926L146.618 114.631C146.673 114.738 146.701 114.856 146.701 114.975C146.701 115.095 146.673 115.212 146.618 115.319L140.039 129.159C139.976 129.293 139.875 129.406 139.748 129.484C139.62 129.563 139.473 129.604 139.323 129.602ZM131.233 124.548L138.941 127.836L145.045 115.006L140.039 105.976L131.233 124.548Z" fill="#00262B"/>
<path d="M127.947 82.3706L111.488 116.97L120.629 120.861L133.841 93.0752L127.947 82.3706Z" fill="white"/>
<path d="M120.629 121.626C120.522 121.629 120.416 121.608 120.318 121.565L111.178 117.665C111.082 117.625 110.996 117.566 110.923 117.493C110.851 117.419 110.795 117.332 110.757 117.237C110.718 117.144 110.697 117.044 110.697 116.943C110.697 116.841 110.718 116.741 110.757 116.648L127.216 82.0492C127.277 81.92 127.373 81.81 127.494 81.7317C127.615 81.6533 127.756 81.6097 127.901 81.6058C128.046 81.6019 128.189 81.6378 128.314 81.7094C128.439 81.781 128.542 81.8854 128.61 82.011L134.503 92.7156C134.558 92.8224 134.587 92.9402 134.587 93.0597C134.587 93.1792 134.558 93.2971 134.503 93.4038L121.268 121.19C121.21 121.311 121.12 121.415 121.008 121.492C120.896 121.568 120.765 121.614 120.629 121.626ZM112.532 116.579L120.24 119.867L132.97 93.1056L127.995 84.0678L112.532 116.579Z" fill="#00262B"/>
<path d="M115.879 60.4653L92.7871 108.996L101.927 112.895L121.781 71.17L115.879 60.4653Z" fill="white"/>
<path d="M101.928 113.66C101.824 113.66 101.72 113.639 101.624 113.599L92.4762 109.699C92.382 109.658 92.297 109.599 92.2262 109.526C92.1554 109.452 92.1001 109.366 92.0636 109.271C92.0229 109.177 92.002 109.075 92.002 108.973C92.002 108.87 92.0229 108.769 92.0636 108.675L115.156 60.1367C115.221 60.0114 115.32 59.9063 115.443 59.8329C115.565 59.7595 115.705 59.7207 115.849 59.7207C115.992 59.7207 116.132 59.7595 116.255 59.8329C116.377 59.9063 116.476 60.0114 116.542 60.1367L122.443 70.8413C122.498 70.948 122.526 71.0659 122.526 71.1854C122.526 71.3049 122.498 71.4228 122.443 71.5295L102.668 113.216C102.603 113.354 102.498 113.47 102.366 113.549C102.235 113.628 102.082 113.666 101.928 113.66ZM93.8309 108.613L101.546 111.894L120.909 71.216L115.903 62.1629L93.8309 108.613Z" fill="#00262B"/>
<path d="M108.849 47.6885L89.735 68.1573L74.0938 101.028L83.2185 104.928L109.721 49.2636L108.849 47.6885Z" fill="white"/>
<path d="M83.2037 105.693C83.0962 105.691 82.9901 105.668 82.8923 105.624L73.7675 101.732C73.6711 101.691 73.5842 101.631 73.5119 101.556C73.4397 101.481 73.3836 101.393 73.3471 101.296C73.3075 101.203 73.2871 101.103 73.2871 101.002C73.2871 100.901 73.3075 100.801 73.3471 100.707L88.9884 67.8289C89.0205 67.7579 89.0654 67.6932 89.1207 67.6377L108.234 47.1613C108.318 47.0709 108.423 47.0016 108.54 46.9592C108.656 46.9167 108.782 46.9024 108.905 46.9174C109.029 46.9324 109.147 46.9762 109.25 47.0453C109.352 47.1143 109.437 47.2065 109.496 47.3142L110.36 48.8893C110.415 48.996 110.443 49.1139 110.443 49.2334C110.443 49.3529 110.415 49.4707 110.36 49.5775L83.8888 105.242C83.8291 105.372 83.7332 105.484 83.6121 105.564C83.4909 105.643 83.3494 105.688 83.2037 105.693ZM75.1222 100.639L82.8222 103.926L108.834 49.2869L108.67 48.9964L90.3742 68.5858L75.1222 100.639Z" fill="#00262B"/>
<path d="M41.9931 68.0578C47.785 68.0578 52.4803 63.4466 52.4803 57.7584C52.4803 52.0702 47.785 47.459 41.9931 47.459C36.2011 47.459 31.5059 52.0702 31.5059 57.7584C31.5059 63.4466 36.2011 68.0578 41.9931 68.0578Z" fill="#D23228"/>
<path d="M41.939 68.8223C38.9796 68.8212 36.1384 67.6812 34.0249 65.6467C31.9114 63.6123 30.6938 60.8455 30.6332 57.9397C30.5727 55.0339 31.6741 52.2205 33.7011 50.1028C35.7281 47.9852 38.5194 46.732 41.4763 46.612C44.4332 46.492 47.3202 47.5148 49.5183 49.4609C51.7163 51.4071 53.0502 54.1217 53.234 57.0225C53.4178 59.9233 52.4368 62.7794 50.5014 64.9781C48.566 67.1768 45.8303 68.5432 42.881 68.7841C42.6008 68.8147 42.2893 68.8223 41.939 68.8223ZM41.9779 48.2159C41.7054 48.2159 41.4407 48.2159 41.1993 48.2159C38.7119 48.3159 36.3634 49.3695 34.6579 51.1506C32.9524 52.9317 32.0257 55.2984 32.0766 57.7429C32.1276 60.1873 33.1521 62.5148 34.9304 64.2259C36.7087 65.937 39.0991 66.8953 41.5886 66.8953C44.0782 66.8953 46.4686 65.937 48.2469 64.2259C50.0252 62.5148 51.0497 60.1873 51.1006 57.7429C51.1516 55.2984 50.2249 52.9317 48.5193 51.1506C46.8138 49.3695 44.4654 48.3159 41.9779 48.2159Z" fill="#00262B"/>
<path d="M71.1217 75.6587C73.8349 75.6587 76.0344 73.4986 76.0344 70.834C76.0344 68.1694 73.8349 66.0093 71.1217 66.0093C68.4085 66.0093 66.209 68.1694 66.209 70.834C66.209 73.4986 68.4085 75.6587 71.1217 75.6587Z" fill="#F0CC00"/>
<path d="M71.1126 76.422C69.6853 76.4192 68.311 75.8905 67.2615 74.9405C66.2119 73.9904 65.5636 72.6883 65.4447 71.2914C65.3531 70.1899 65.596 69.0864 66.1428 68.1205C66.6896 67.1546 67.5158 66.3695 68.5167 65.8646C69.5177 65.3596 70.6487 65.1575 71.7667 65.2836C72.8846 65.4097 73.9394 65.8586 74.7977 66.5733C75.656 67.288 76.2793 68.2366 76.5889 69.2992C76.8984 70.3617 76.8802 71.4905 76.5366 72.5429C76.193 73.5953 75.5395 74.5241 74.6586 75.2118C73.7777 75.8995 72.709 76.3153 71.5875 76.4067L71.1126 76.422ZM67.0018 71.169C67.0693 71.9694 67.377 72.7322 67.886 73.3608C68.395 73.9894 69.0823 74.4556 69.8611 74.7005C70.64 74.9455 71.4753 74.958 72.2614 74.7366C73.0475 74.5153 73.749 74.0699 74.2774 73.4569C74.8057 72.8439 75.137 72.0908 75.2295 71.2928C75.3219 70.4948 75.1713 69.6878 74.7967 68.9739C74.4221 68.26 73.8403 67.6712 73.1249 67.2821C72.4096 66.893 71.5927 66.7209 70.7778 66.7878C69.6856 66.8773 68.6744 67.3892 67.9663 68.2107C67.2582 69.0323 66.9113 70.0964 67.0018 71.169Z" fill="#00262B"/>
<path d="M68.4586 38.0767L68.809 44.3466L63.7484 48.1697C63.5877 48.292 63.465 48.456 63.3943 48.6432C63.3236 48.8304 63.3075 49.0332 63.348 49.2289C63.3885 49.4246 63.4839 49.6052 63.6234 49.7504C63.763 49.8956 63.9411 49.9996 64.1376 50.0506L70.3116 51.6563L72.4604 57.5668C72.5292 57.7542 72.6498 57.919 72.8086 58.0427C72.9675 58.1665 73.1584 58.2443 73.3598 58.2673C73.5613 58.2903 73.7652 58.2577 73.9488 58.1731C74.1324 58.0886 74.2883 57.9554 74.3991 57.7885L77.8637 52.5203L84.2479 52.3368C84.4477 52.3246 84.6403 52.2586 84.8045 52.146C84.9687 52.0334 85.0981 51.8785 85.1786 51.6984C85.259 51.5183 85.2874 51.3198 85.2605 51.1249C85.2337 50.93 85.1527 50.7462 85.0264 50.5935L80.9935 45.7229L82.7919 39.7053C82.8475 39.514 82.8476 39.3112 82.7923 39.1198C82.737 38.9283 82.6284 38.7558 82.4789 38.6216C82.3293 38.4874 82.1445 38.3968 81.9454 38.36C81.7463 38.3231 81.5407 38.3416 81.3516 38.4131L75.3956 40.707L70.117 37.1668C69.952 37.0678 69.7632 37.0137 69.5699 37.01C69.3766 37.0063 69.1858 37.0531 69.017 37.1457C68.8482 37.2383 68.7076 37.3734 68.6094 37.537C68.5113 37.7006 68.4593 37.8868 68.4586 38.0767Z" fill="#2D494E"/>
<path d="M73.4883 59.0508H73.2703C72.9212 59.0142 72.5897 58.8814 72.3141 58.6676C72.0386 58.4538 71.8302 58.1678 71.7132 57.8427L69.6967 52.3145L63.9198 50.7853C63.5827 50.7002 63.2771 50.5227 63.0386 50.2737C62.8002 50.0246 62.6386 49.7141 62.5729 49.3784C62.5032 49.0436 62.5304 48.6964 62.6515 48.3761C62.7726 48.0557 62.9828 47.7752 63.258 47.5662L67.9917 43.9802L67.6647 38.1156C67.6461 37.7739 67.7252 37.4339 67.893 37.134C68.0608 36.8341 68.3106 36.5862 68.6143 36.4184C68.918 36.2506 69.2634 36.1695 69.6115 36.1843C69.9596 36.1992 70.2965 36.3093 70.5843 36.5022L75.5204 39.813L81.0949 37.695C81.4199 37.5716 81.7736 37.5398 82.116 37.6034C82.4584 37.6669 82.7759 37.8232 83.0326 38.0547C83.2893 38.2861 83.475 38.5834 83.5687 38.9131C83.6625 39.2427 83.6604 39.5915 83.5629 39.9201L81.8812 45.5553L85.6495 50.143C85.8722 50.4067 86.0139 50.7272 86.0581 51.067C86.1022 51.4069 86.0469 51.7521 85.8986 52.0622C85.7536 52.3733 85.5229 52.6384 85.2327 52.8275C84.9424 53.0167 84.604 53.1224 84.2558 53.1327L78.2843 53.3009L75.0532 58.2174C74.8841 58.4736 74.6522 58.6842 74.3788 58.8298C74.1055 58.9754 73.7993 59.0514 73.4883 59.0508ZM69.2374 38.0391L69.5877 44.3013C69.5949 44.4258 69.571 44.55 69.518 44.6633C69.4651 44.7766 69.3848 44.8754 69.2841 44.9513L64.2312 48.7743C64.1842 48.8074 64.1481 48.8533 64.1274 48.9063C64.1066 48.9593 64.1021 49.0171 64.1145 49.0725C64.1256 49.1289 64.1528 49.181 64.1927 49.2229C64.2326 49.2648 64.2837 49.2948 64.3402 49.3096L70.5142 50.9229C70.6355 50.9553 70.747 51.016 70.8392 51.0999C70.9314 51.1838 71.0015 51.2883 71.0437 51.4046L73.1925 57.3075C73.2107 57.3617 73.2447 57.4095 73.2904 57.4449C73.3361 57.4803 73.3914 57.5016 73.4494 57.5063C73.507 57.5135 73.5654 57.5044 73.6178 57.48C73.6703 57.4556 73.7145 57.4169 73.7453 57.3686L77.2099 52.1004C77.2789 51.9974 77.3723 51.9122 77.4821 51.8523C77.592 51.7924 77.7149 51.7595 77.8405 51.7563L84.2247 51.5728C84.2825 51.5711 84.3388 51.5536 84.3871 51.5222C84.4353 51.4909 84.4738 51.4469 84.498 51.3953C84.5223 51.3437 84.5314 51.2864 84.5244 51.23C84.5174 51.1736 84.4945 51.1202 84.4583 51.0758L80.4253 46.2129C80.3452 46.1158 80.2905 46.0009 80.2661 45.8783C80.2417 45.7556 80.2482 45.629 80.2852 45.5094L82.0836 39.4919C82.1012 39.4376 82.1017 39.3794 82.0851 39.3248C82.0684 39.2702 82.0353 39.2219 81.9902 39.186C81.9526 39.1344 81.8974 39.0975 81.8347 39.0821C81.7719 39.0667 81.7056 39.0737 81.6476 39.1019L75.6917 41.3958C75.5742 41.4396 75.4477 41.4548 75.323 41.4401C75.1983 41.4255 75.079 41.3814 74.9754 41.3117L69.6967 37.7715C69.6496 37.7373 69.5934 37.7172 69.5349 37.7137C69.4764 37.7102 69.4181 37.7234 69.3671 37.7517C69.3161 37.78 69.2744 37.8222 69.2473 37.8732C69.2201 37.9242 69.2086 37.9818 69.214 38.0391H69.2374Z" fill="#00262B"/>
<path d="M47.5619 11.704L45.3119 17.5763L39.0834 19.1055C38.8863 19.1535 38.7068 19.2547 38.5651 19.3975C38.4234 19.5404 38.3251 19.7193 38.2814 19.9141C38.2377 20.1088 38.2503 20.3117 38.3177 20.4998C38.3851 20.688 38.5047 20.8539 38.663 20.9788L43.6535 24.9013L43.1942 31.1559C43.1802 31.3544 43.2229 31.5528 43.3174 31.7288C43.4119 31.9048 43.5545 32.0515 43.7291 32.1523C43.9038 32.2532 44.1036 32.3042 44.3062 32.2998C44.5087 32.2953 44.706 32.2354 44.8759 32.1269L50.2168 28.6785L56.1339 31.0412C56.3215 31.1175 56.5272 31.1404 56.7274 31.1073C56.9277 31.0742 57.1144 30.9864 57.2663 30.854C57.4182 30.7216 57.529 30.5499 57.5862 30.3586C57.6434 30.1672 57.6447 29.9639 57.5898 29.7719L55.9548 23.6855L60.0734 18.8914C60.2049 18.7398 60.2903 18.5549 60.32 18.3578C60.3497 18.1608 60.3224 17.9595 60.2412 17.777C60.16 17.5944 60.0283 17.438 59.861 17.3254C59.6936 17.2129 59.4974 17.1488 59.2948 17.1404L52.9106 16.8422L49.5394 11.4899C49.433 11.3118 49.2763 11.1677 49.0883 11.0751C48.9003 10.9825 48.6891 10.9452 48.4801 10.9679C48.271 10.9905 48.0731 11.072 47.9102 11.2027C47.7473 11.3333 47.6263 11.5074 47.5619 11.704Z" fill="#F2F0EF"/>
<path d="M44.2775 33.0369C44.0212 33.0365 43.7678 32.9843 43.5329 32.8836C43.2981 32.7829 43.0868 32.6358 42.9123 32.4515C42.7378 32.2672 42.6037 32.0496 42.5185 31.8122C42.4332 31.5749 42.3986 31.3229 42.4167 31.0718L42.8527 25.2148L38.1814 21.5447C37.91 21.3308 37.7049 21.0467 37.589 20.7245C37.4732 20.4023 37.4512 20.0547 37.5257 19.7209C37.6002 19.3871 37.768 19.0803 38.0104 18.8352C38.2528 18.59 38.5601 18.4162 38.8976 18.3333L44.7291 16.9264L46.839 11.4364C46.9624 11.1168 47.1743 10.8373 47.4507 10.6296C47.7272 10.4219 48.0572 10.2941 48.4036 10.2607C48.7501 10.2273 49.0991 10.2897 49.4114 10.4406C49.7237 10.5916 49.9869 10.8253 50.1712 11.1153L53.3244 16.1006L59.2959 16.3759C59.6441 16.3912 59.9809 16.5023 60.2679 16.6964C60.5549 16.8905 60.7807 17.1599 60.9194 17.4739C61.0582 17.7879 61.1043 18.1338 61.0527 18.4723C61.001 18.8108 60.8536 19.1282 60.6273 19.3885L56.7734 23.8768L58.3305 29.5349C58.4223 29.8645 58.4186 30.2127 58.3197 30.5403C58.2209 30.8679 58.0309 31.1619 57.7712 31.3892C57.5114 31.6165 57.1922 31.768 56.8495 31.8268C56.5068 31.8855 56.1541 31.8492 55.8313 31.7217L50.2958 29.5043L45.2974 32.731C44.9959 32.9302 44.6409 33.0366 44.2775 33.0369ZM48.5674 11.7805C48.5103 11.7846 48.4557 11.8048 48.4101 11.8387C48.3645 11.8726 48.3299 11.9188 48.3104 11.9717L46.0526 17.8439C46.0087 17.9597 45.9369 18.0633 45.8434 18.1458C45.7498 18.2284 45.6373 18.2875 45.5154 18.318L39.2869 19.8472C39.2302 19.8587 39.1783 19.8868 39.138 19.9277C39.0977 19.9686 39.0709 20.0205 39.0612 20.0766C39.0474 20.1325 39.0503 20.1911 39.0697 20.2453C39.089 20.2996 39.1239 20.3472 39.1701 20.3825L44.1607 24.2973C44.2597 24.3755 44.3377 24.4763 44.3879 24.5909C44.4382 24.7056 44.459 24.8305 44.4488 24.9549L43.9894 31.2094C43.9813 31.2658 43.9911 31.3233 44.0176 31.374C44.0441 31.4247 44.0859 31.466 44.1374 31.4923C44.1854 31.5249 44.2425 31.5423 44.3009 31.5423C44.3593 31.5423 44.4163 31.5249 44.4644 31.4923L49.8053 28.0439C49.9102 27.9767 50.0301 27.9353 50.1548 27.9234C50.2795 27.9114 50.4053 27.9291 50.5216 27.9751L56.4386 30.3378C56.4923 30.3619 56.5522 30.3698 56.6105 30.3602C56.6687 30.3507 56.7228 30.3242 56.7656 30.2843C56.8076 30.2462 56.8385 30.1977 56.8549 30.1439C56.8714 30.0901 56.8728 30.0329 56.859 29.9784L55.1773 23.8921C55.1438 23.7724 55.1405 23.6465 55.1677 23.5253C55.1948 23.404 55.2515 23.2911 55.3331 23.1962L59.4439 18.4021C59.4817 18.3589 59.5065 18.3061 59.5154 18.2498C59.5243 18.1935 59.517 18.1358 59.4943 18.0833C59.4717 18.0309 59.4345 17.9856 59.3871 17.9528C59.3396 17.92 59.2838 17.9008 59.2259 17.8975L52.8417 17.6069C52.716 17.6009 52.5937 17.565 52.4852 17.5025C52.3768 17.4399 52.2853 17.3524 52.2188 17.2475L48.8476 11.8952C48.8175 11.8571 48.7783 11.8267 48.7336 11.8068C48.6888 11.7868 48.6398 11.7778 48.5907 11.7805H48.5674Z" fill="#00262B"/>
<path d="M37.074 92.1358C36.6171 92.135 36.1621 92.0785 35.7193 91.9676C34.7584 91.7478 33.8679 91.2975 33.1274 90.657C32.387 90.0165 31.8196 89.2059 31.4762 88.2975C30.5497 85.5219 31.7487 82.6622 33.6639 80.743C31.7876 80.044 29.7531 79.859 27.778 80.2078C27.4095 80.2844 27.0477 80.3892 26.6958 80.5213C26.8024 80.6888 26.8986 80.8624 26.9839 81.0412C28.0739 83.2128 27.8559 86.3936 25.6058 87.9228C24.9934 88.372 24.2341 88.5843 23.4726 88.5192C23.1216 88.4715 22.7851 88.3506 22.4857 88.1647C22.1862 87.9787 21.9307 87.732 21.7364 87.4411C21.4344 86.9633 21.2327 86.4311 21.1431 85.8756C21.0536 85.3202 21.0779 84.7528 21.2147 84.2068C21.6918 82.475 22.8001 80.9756 24.329 79.9937C23.3534 79.0794 22.2266 78.3347 20.9967 77.7916C17.8788 76.352 14.4681 75.628 11.0231 75.6743C7.57807 75.7207 4.18893 76.5363 1.1123 78.0592C0.929347 78.1445 0.719775 78.1564 0.528045 78.0924C0.336315 78.0284 0.177519 77.8936 0.085341 77.7165C-0.00683646 77.5394 -0.0251406 77.334 0.0343169 77.1439C0.0937744 76.9538 0.226314 76.7939 0.403811 76.6982C3.69559 75.0711 7.3209 74.2001 11.0058 74.1511C14.6906 74.1021 18.3386 74.8763 21.6741 76.4153C23.2011 77.0867 24.5812 78.0422 25.7382 79.2291C26.2883 78.99 26.8624 78.808 27.451 78.6862C30.0121 78.2432 32.6495 78.56 35.0264 79.5961L35.1588 79.512C37.4944 77.9828 40.4841 77.3099 44.5793 77.3405C49.3363 77.3405 56.0865 78.3039 61.2561 82.5705C61.3343 82.6352 61.3988 82.7145 61.4458 82.8037C61.4928 82.893 61.5215 82.9904 61.5302 83.0905C61.5388 83.1906 61.5274 83.2915 61.4964 83.3872C61.4654 83.483 61.4155 83.5718 61.3495 83.6486C61.2836 83.7254 61.2029 83.7887 61.112 83.8349C61.0212 83.8811 60.9219 83.9092 60.82 83.9177C60.7181 83.9263 60.6154 83.915 60.5179 83.8846C60.4204 83.8541 60.33 83.8051 60.2518 83.7403C55.4403 79.7643 49.0639 78.8927 44.5716 78.8697C41.1848 78.8697 38.6934 79.3208 36.7237 80.399C38.4643 81.2303 39.9221 82.5398 40.9201 84.1685C42.0257 86.1412 42.1502 89.0927 40.2428 90.9201C39.3924 91.7219 38.2526 92.1592 37.074 92.1358ZM35.2522 81.3777C33.4615 82.9069 32.1379 85.4607 32.9554 87.8234C33.2121 88.484 33.6305 89.0723 34.1736 89.5364C34.7168 90.0005 35.368 90.326 36.0697 90.4843C36.5962 90.641 37.1548 90.6622 37.692 90.5457C38.2292 90.4292 38.7269 90.179 39.1372 89.8191C40.4685 88.5421 40.3362 86.3247 39.5343 84.8949C38.5133 83.3143 37.0167 82.0851 35.2522 81.3777ZM25.31 81.2095C24.0451 81.9737 23.1238 83.182 22.7329 84.5891C22.5587 85.2707 22.6621 85.9921 23.021 86.6C23.0922 86.7134 23.1875 86.8104 23.3004 86.8843C23.4132 86.9582 23.541 87.0073 23.675 87.0282C24.0466 87.0346 24.4093 86.9159 24.7027 86.6918C26.2598 85.6213 26.3688 83.2739 25.5902 81.7141C25.5072 81.5459 25.4138 81.3777 25.31 81.2095Z" fill="#00262B"/>
<path d="M12.0039 40.0428C12.8555 38.0154 14.2549 36.255 16.0511 34.9519C17.8472 33.6488 19.9718 32.8524 22.1953 32.6489L25.5431 37.7719C25.5431 37.7719 18.1156 39.217 16.3327 44.5846L12.0039 40.0428Z" fill="#2D494E"/>
<path d="M16.3328 45.3498C16.2266 45.3505 16.1214 45.3298 16.0237 45.289C15.9259 45.2483 15.8377 45.1883 15.7644 45.1128L11.4356 40.571C11.3396 40.4705 11.2729 40.3464 11.2428 40.2118C11.2126 40.0772 11.2201 39.9371 11.2644 39.8064C11.3578 39.5311 13.7246 32.9248 22.1019 31.8926C22.2525 31.87 22.4065 31.8912 22.5449 31.9538C22.6833 32.0163 22.8 32.1173 22.8805 32.2443L26.2283 37.3672C26.2955 37.4725 26.3356 37.5922 26.3451 37.7162C26.3546 37.8401 26.3332 37.9644 26.2828 38.0783C26.2336 38.1925 26.1569 38.2933 26.0592 38.3718C25.9616 38.4504 25.8459 38.5045 25.7222 38.5294C25.6522 38.5294 18.7152 39.9593 17.0958 44.8299C17.0538 44.9574 16.9786 45.0718 16.8774 45.1617C16.7763 45.2516 16.6529 45.3138 16.5196 45.3422C16.4582 45.3546 16.3951 45.3572 16.3328 45.3498ZM12.9071 39.8828L16.0759 43.2013C17.96 39.5158 22.3043 37.8489 24.313 37.2908L21.8139 33.4677C19.9005 33.7113 18.0809 34.4257 16.5238 35.5445C14.9667 36.6633 13.7227 38.1503 12.9071 39.8675V39.8828Z" fill="#00262B"/>
<path d="M67.8842 6.21841L77.125 7.97754L77.8747 4.17928L68.6339 2.42015L67.8842 6.21841Z" fill="#D23228"/>
<path d="M77.1247 8.7391H76.9768L67.7353 6.98813C67.6342 6.96844 67.5381 6.92923 67.4526 6.87279C67.3671 6.81635 67.2938 6.7438 67.237 6.65934C67.1223 6.49094 67.0802 6.28468 67.1202 6.08588L67.8988 2.26279C67.9384 2.06424 68.0564 1.88917 68.2272 1.77595C68.3979 1.66273 68.6074 1.62058 68.8097 1.65875L78.0512 3.41737C78.2534 3.45622 78.4317 3.57219 78.5469 3.73987C78.6622 3.90755 78.7051 4.11327 78.6663 4.31197L77.8877 8.13505C77.8503 8.30635 77.754 8.45981 77.6152 8.56977C77.4763 8.67973 77.3031 8.7395 77.1247 8.7391ZM68.7941 5.61182L76.5097 7.07988L76.9612 4.78603L69.2457 3.31797L68.7941 5.61182Z" fill="#00262B"/>
<path d="M100.481 47.1145C100.276 47.1137 100.081 47.034 99.9356 46.8928C96.6413 43.69 94.1794 39.7564 92.7573 35.4235C91.6084 32.1618 91.3401 28.6633 91.9787 25.2694C89.8182 21.8156 88.7656 17.8034 88.9579 13.7543C89.2364 9.07201 90.5856 4.51155 92.9052 0.411698C92.9999 0.232948 93.1626 0.098135 93.358 0.0365676C93.5533 -0.0249998 93.7655 -0.00834461 93.9485 0.0829124C94.0396 0.12896 94.1206 0.192224 94.1867 0.269076C94.2529 0.345928 94.303 0.434853 94.3341 0.530755C94.3652 0.626657 94.3767 0.727645 94.368 0.827929C94.3593 0.928212 94.3305 1.02582 94.2832 1.11514C92.0759 5.01582 90.7882 9.3533 90.515 13.8078C90.3708 17.0777 91.0839 20.3292 92.586 23.2508C94.1431 19.3207 97.4675 16.4381 101.244 15.8417C102.302 15.6453 103.391 15.6805 104.434 15.9448C105.477 16.2092 106.448 16.6961 107.277 17.3709C108.576 18.6312 109.369 20.3086 109.512 22.0962C109.713 23.5115 109.549 24.9539 109.033 26.2902C108.517 27.6265 107.667 28.8137 106.561 29.7424C102.668 32.8009 96.5177 30.767 93.2789 26.9974C93.0325 29.6872 93.3586 32.3978 94.2365 34.9571C95.5818 39.0619 97.913 42.7885 101.033 45.8223C101.178 45.9656 101.26 46.1594 101.26 46.3614C101.26 46.5634 101.178 46.7572 101.033 46.9004C100.885 47.0407 100.686 47.1177 100.481 47.1145ZM93.6682 24.9406C93.9251 25.3 94.1976 25.6517 94.4467 25.9805C97.2262 29.2072 102.365 30.9964 105.588 28.5114C106.476 27.7317 107.154 26.7484 107.561 25.6492C107.969 24.55 108.093 23.3688 107.924 22.2109C107.842 20.8014 107.245 19.4681 106.242 18.4567C105.588 17.9344 104.824 17.5612 104.006 17.3642C103.187 17.1672 102.334 17.1512 101.508 17.3174C98.1994 17.8373 95.1474 20.5823 93.9095 24.1454C93.8239 24.436 93.7382 24.6959 93.6682 24.9636V24.9406Z" fill="#00262B"/>
<path d="M14.3719 57.1477C14.2689 57.1473 14.167 57.1268 14.0721 57.0874C13.9772 57.048 13.8912 56.9905 13.8191 56.9183C13.1697 56.2731 12.3036 55.8818 11.3822 55.8172C11.1757 55.803 10.9834 55.7089 10.8477 55.5554C10.7119 55.402 10.6437 55.2019 10.6582 54.9991C10.6726 54.7963 10.7685 54.6075 10.9247 54.4741C11.081 54.3408 11.2847 54.2738 11.4912 54.288C12.7872 54.3786 14.0077 54.9209 14.9324 55.8172C15.0054 55.8883 15.0633 55.9729 15.1029 56.0661C15.1424 56.1592 15.1627 56.2592 15.1627 56.3601C15.1627 56.4611 15.1424 56.561 15.1029 56.6542C15.0633 56.7474 15.0054 56.8319 14.9324 56.903C14.8607 56.9789 14.7741 57.0398 14.6777 57.0818C14.5814 57.1239 14.4773 57.1463 14.3719 57.1477Z" fill="#DFEAEF"/>
<path d="M29.2882 24.3127C29.1586 24.3133 29.031 24.2822 28.9168 24.2221C28.8026 24.162 28.7054 24.0749 28.6342 23.9686C27.3754 22.1008 26.412 20.0565 25.7769 17.9052C25.7011 17.7107 25.6729 17.5014 25.6946 17.2942C25.7162 17.0871 25.7871 16.8878 25.9014 16.7124C26.0416 16.5286 26.2411 16.3968 26.4673 16.3385C26.6935 16.2802 26.9331 16.2988 27.1471 16.3913C27.3433 16.4659 27.507 16.605 27.6106 16.7848C27.7142 16.9646 27.7513 17.174 27.7155 17.3776C27.6807 17.5744 27.569 17.7501 27.4041 17.867C27.9953 19.7275 28.8525 21.4961 29.95 23.1199C30.007 23.2037 30.0466 23.2977 30.0665 23.3965C30.0864 23.4953 30.0862 23.597 30.0659 23.6958C30.0457 23.7946 30.0057 23.8884 29.9484 23.972C29.8911 24.0556 29.8175 24.1272 29.732 24.1827C29.6009 24.2693 29.4461 24.3146 29.2882 24.3127Z" fill="#DFEAEF"/>
<path d="M75.8224 30.6454C75.6159 30.6616 75.4113 30.5966 75.2536 30.4647C75.0959 30.3328 74.998 30.1447 74.9815 29.9419C74.965 29.7391 75.0312 29.5382 75.1655 29.3833C75.2998 29.2285 75.4913 29.1324 75.6978 29.1161C76.0624 29.043 76.4067 28.8939 76.7076 28.6789C77.0084 28.4639 77.2588 28.188 77.4418 27.8698C77.63 27.5785 77.7512 27.2504 77.7969 26.9084C77.8426 26.5663 77.8118 26.2186 77.7065 25.8895V25.813C77.3162 26.2789 76.8442 26.6725 76.3129 26.9752C75.9593 27.1929 75.5656 27.3401 75.1541 27.4083C74.7427 27.4765 74.3216 27.4645 73.9149 27.3728C73.4323 27.2562 73.0047 26.9811 72.7031 26.5931C72.4015 26.2051 72.2439 25.7275 72.2566 25.2395C72.2955 24.9014 72.4082 24.5754 72.5869 24.2838C72.7655 23.9923 73.006 23.7419 73.292 23.5497C73.7728 23.221 74.3247 23.0064 74.9043 22.9228C75.4839 22.8392 76.0754 22.8889 76.6321 23.068C76.8732 23.1431 77.1076 23.2377 77.3328 23.3509C77.3951 23.1751 77.4496 23.0069 77.4963 22.8233C77.7503 21.5395 77.8366 20.2291 77.7532 18.9238C77.7532 18.721 77.8352 18.5265 77.9812 18.3831C78.1272 18.2397 78.3253 18.1592 78.5318 18.1592C78.7382 18.1592 78.9363 18.2397 79.0823 18.3831C79.2283 18.5265 79.3103 18.721 79.3103 18.9238C79.407 20.366 79.3022 21.8143 78.9989 23.2286C78.9009 23.6206 78.7707 24.0042 78.6096 24.3755C78.8661 24.6862 79.0663 25.038 79.2013 25.4154C79.3822 25.9537 79.4403 26.5245 79.3717 27.0874C79.3031 27.6503 79.1094 28.1915 78.8043 28.6727C78.5052 29.1831 78.0981 29.6247 77.6106 29.9676C77.1231 30.3105 76.5664 30.5468 75.9781 30.6607L75.8224 30.6454ZM75.4175 24.4214C74.9903 24.4125 74.5718 24.5414 74.2263 24.7884C74.0155 24.915 73.8643 25.1184 73.8059 25.3542C73.8059 25.5683 74.0395 25.8283 74.3197 25.9047C74.7441 25.9793 75.1813 25.8918 75.5421 25.6601C75.9579 25.4163 76.3204 25.0941 76.6087 24.7119C76.4689 24.6409 76.323 24.5821 76.1727 24.5361C75.9283 24.4608 75.6737 24.4221 75.4175 24.4214Z" fill="#DFEAEF"/>
<path d="M55.1276 5.87171C54.9686 5.87222 54.8132 5.82486 54.6823 5.736C54.5515 5.64714 54.4515 5.52106 54.3958 5.37471C53.8828 4.01159 53.8581 2.51749 54.3257 1.13873C54.3899 0.946164 54.5292 0.78647 54.7131 0.694718C54.8971 0.602965 55.1105 0.586657 55.3067 0.649373C55.4047 0.680512 55.4954 0.730432 55.5736 0.796239C55.6518 0.862047 55.7159 0.942434 55.7623 1.03275C55.8086 1.12306 55.8362 1.22151 55.8436 1.32239C55.8509 1.42327 55.8378 1.52457 55.805 1.62044C55.4505 2.67053 55.4669 3.80736 55.8517 4.84712C55.9222 5.03677 55.9135 5.24611 55.8274 5.42946C55.7414 5.61282 55.585 5.7553 55.3924 5.82583C55.3075 5.85608 55.2179 5.87161 55.1276 5.87171Z" fill="#DFEAEF"/>
</svg>
